<svg width="72" height="61" viewBox="0 0 72 61" fill="none" xmlns="http://www.w3.org/2000/svg">
<path d="M40.6796 31.3868L38.1323 33.9341L35.9121 31.7139C35.61 31.4118 35.3633 31.2809 35.172 31.3211C34.9849 31.327 34.6983 31.5229 34.3124 31.9089L26.8731 39.3481C26.5065 39.7148 26.3106 40.0013 26.2854 40.2077C26.2451 40.399 26.376 40.6457 26.6781 40.9478L36.692 50.9617C36.9941 51.2638 37.2483 51.4022 37.4547 51.3771C37.6461 51.3368 37.925 51.1333 38.2917 50.7667L45.7599 43.2985C46.1265 42.9318 46.33 42.6529 46.3703 42.4615C46.3954 42.2551 46.257 42.0009 45.9549 41.6988L42.0807 37.8247L37.1888 42.7166L35.8521 41.3799L43.2624 33.9696L48.7225 39.4297C49.9157 40.6229 49.75 41.9818 48.2255 43.5063L38.4705 53.2612C36.946 54.7858 35.5871 54.9514 34.3939 53.7582L23.8816 43.2459C22.6884 42.0527 22.8541 40.6938 24.3786 39.1693L34.1335 29.4143C35.6581 27.8898 37.0169 27.7241 38.2101 28.9174L40.6796 31.3868Z" fill="#0F62AC"/>
<path d="M50.4867 32.7489L60.5973 22.6382L53.0488 15.0896C52.463 14.5038 51.5132 14.5038 50.9274 15.0896L42.9381 23.079C42.3523 23.6647 42.3523 24.6145 42.9381 25.2003L50.4867 32.7489ZM64.7207 26.7616L61.934 23.9749L51.8234 34.0856L54.6101 36.8722L52.3049 39.1774L41.7484 28.621C39.7958 26.6684 39.7958 23.5025 41.7484 21.5499L49.0554 14.2429C51.0014 12.2969 54.1542 12.2894 56.1095 14.226L66.7336 24.7487L64.7207 26.7616Z" fill="#0F62AC"/>
<path d="M19.1606 34.4512L22.8535 30.7583C23.1405 30.4714 23.2705 30.2238 23.2437 30.0158C23.2365 29.8273 23.0371 29.5373 22.6456 29.1458L14.1013 20.6015C12.555 19.0551 12.3784 17.6854 13.5716 16.4921L17.6496 12.4141C18.8428 11.2209 20.2126 11.3975 21.759 12.9438L31.3603 22.5451C32.9067 24.0915 33.0833 25.4613 31.8901 26.6545L29.6471 28.8974L27.0633 26.3136L29.057 24.3199C29.3591 24.0178 29.4892 23.7703 29.4472 23.5773C29.44 23.3888 29.2406 23.0988 28.8491 22.7074L21.5968 15.455C21.2249 15.0831 20.9349 14.8837 20.7268 14.8569C20.5339 14.815 20.2863 14.945 19.9843 15.2471L16.4046 18.8268C16.1025 19.1288 15.9649 19.3839 15.9917 19.592C16.0337 19.7849 16.2406 20.0674 16.6125 20.4393L25.1274 28.9542C26.6738 30.5006 26.8504 31.8704 25.6572 33.0636L21.4658 37.2549C20.2726 38.4481 18.9028 38.2715 17.3564 36.7252L7.72579 27.0945C6.17941 25.5481 6.00282 24.1783 7.19603 22.9851L9.43897 20.7422L12.0228 23.326L10.0291 25.3198C9.727 25.6218 9.58937 25.8769 9.6162 26.085C9.65812 26.2779 9.86504 26.5604 10.237 26.9323L17.548 34.2434C17.9395 34.6349 18.222 34.8418 18.3953 34.8641C18.6034 34.8909 18.8585 34.7533 19.1606 34.4512Z" fill="#0F62AC"/>
<path fill-rule="evenodd" clip-rule="evenodd" d="M34.761 1.27489C35.356 0.560861 36.1546 0.133408 37.1294 0.00716096C37.2948 -0.0142575 37.8857 0.0154791 38.0845 0.055238C39.4762 0.333551 40.5781 1.41124 40.9588 2.86629C41.0138 3.07621 41.069 3.46881 41.0691 3.64998C41.0692 3.89051 41.1079 3.81776 41.1235 3.54756C41.1783 2.59762 41.6579 1.60166 42.3694 0.960002C43.8337 -0.360565 45.9457 -0.273466 47.2986 1.1633C47.8258 1.7231 48.1809 2.44423 48.3189 3.23511C48.3565 3.45052 48.3634 3.62001 48.3636 4.34165L48.3638 5.19381L45.9402 5.20698V4.49799C45.9402 4.10803 45.9293 3.72731 45.916 3.65193C45.8351 3.19457 45.4886 2.7884 45.0591 2.6474C44.9254 2.60352 44.5721 2.59839 44.4314 2.6383C44.1346 2.72247 43.7961 3.01238 43.6596 3.29932C43.5312 3.56929 43.5286 3.60533 43.5286 5.0974V6.4784H50.5368L50.5368 6.47482L53.6333 6.48015L72 24.8811L36.0175 60.9307L17.1146 41.9926L17.123 41.9841L0 24.8292L18.3677 6.42734L27.7455 6.4784V9.22299C27.7455 11.8999 27.7467 11.9717 27.7934 12.1331C27.9096 12.5339 28.2281 12.8584 28.6264 12.9817C28.7966 13.0344 29.1901 13.0178 29.3453 12.9514C29.7005 12.7992 29.954 12.522 30.0773 12.151C30.1319 11.9866 30.1322 11.9779 30.1327 10.6607C30.133 9.93201 30.1404 8.6986 30.1491 7.91983L30.1649 6.50384L31.3609 6.50379C32.0186 6.50377 32.8389 6.49621 33.1836 6.48698L33.8104 6.47024V5.1161C33.8104 4.36719 33.8215 3.64423 33.8352 3.49855C33.9138 2.66251 34.2224 1.92116 34.761 1.27489ZM19.438 9.00808L3.64632 24.8292L20.7694 41.9842L20.761 41.9927L36.0175 57.2776L68.3537 24.8811L52.561 9.05905C34.8773 9.05905 -0.0993808 9.05905 47.8941 9.05905C46.4197 9.05905 44.1186 9.03259 44.1186 9.03259H43.5286V15.5087H41.0931V9.07304H36.2461L36.234 15.5215H33.8223L33.8102 9.07304H32.5926L32.5921 10.5548C32.5919 11.4054 32.5815 12.1123 32.5678 12.2146C32.5012 12.7104 32.3177 13.2889 32.1006 13.6875C31.5474 14.7031 30.6094 15.3991 29.5272 15.5971C29.2548 15.647 28.6621 15.6477 28.3775 15.5985C27.0348 15.3665 25.9306 14.3669 25.5002 12.9938C25.4566 12.8548 25.4241 12.7513 25.3995 12.646C25.3266 12.3323 25.3249 12.0021 25.3168 10.6692L25.307 9.00528L19.438 9.00808ZM38.6312 3.59885C38.5422 3.14407 38.1833 2.74257 37.7613 2.62545C37.5887 2.57758 37.303 2.57765 37.1357 2.62568C36.7474 2.73707 36.4134 3.08244 36.2933 3.49669C36.2484 3.65145 36.2459 3.73555 36.2459 5.06929V6.4784L41.0931 6.4784V5.20653H38.6576V4.47008C38.6576 4.03073 38.6469 3.67928 38.6312 3.59885Z" fill="#0F62AC"/>
</svg>
